<svg width="20" height="21" viewBox="0 0 20 21" fill="none" xmlns="http://www.w3.org/2000/svg">
<path d="M14.0315 4.70744C14.4865 4.70706 14.9371 4.79752 15.3567 4.97353C15.7763 5.14954 16.1566 5.40755 16.4752 5.73244C17.1317 6.39893 17.4997 7.29691 17.4997 8.23244C17.4997 9.16797 17.1317 10.066 16.4752 10.7324L10.0002 17.2887L3.52523 10.7324C2.86871 10.066 2.50072 9.16797 2.50072 8.23244C2.50072 7.29691 2.86871 6.39893 3.52523 5.73244C3.84403 5.40779 4.22434 5.14991 4.64392 4.97387C5.0635 4.79784 5.51396 4.70717 5.96898 4.70717C6.42399 4.70717 6.87445 4.79784 7.29403 4.97387C7.71361 5.14991 8.09392 5.40779 8.41272 5.73244L10.0002 7.35744L11.5815 5.74494C11.8991 5.41618 12.2798 5.15485 12.7008 4.97659C13.1217 4.79833 13.5743 4.70678 14.0315 4.70744ZM14.0315 3.45744C13.41 3.45691 12.7947 3.58048 12.2215 3.82088C11.6484 4.06128 11.1291 4.41369 10.694 4.85744L10.0002 5.55744L9.30647 4.85744C8.87082 4.41449 8.35135 4.0627 7.77834 3.82256C7.20534 3.58242 6.59026 3.45875 5.96898 3.45875C5.34769 3.45875 4.73261 3.58242 4.15961 3.82256C3.5866 4.0627 3.06713 4.41449 2.63148 4.85744C1.74515 5.75971 1.24854 6.97392 1.24854 8.23869C1.24854 9.50347 1.74515 10.7177 2.63148 11.6199L10.0002 19.0824L17.369 11.6199C18.2553 10.7177 18.7519 9.50347 18.7519 8.23869C18.7519 6.97392 18.2553 5.75971 17.369 4.85744C16.9334 4.41426 16.414 4.06222 15.841 3.82185C15.268 3.58149 14.6529 3.45761 14.0315 3.45744Z" fill="#6500E4"/>
</svg>
