<svg width="13" height="13" viewBox="0 0 13 13" fill="none" xmlns="http://www.w3.org/2000/svg">
<g clip-path="url(#clip0_148_909)">
<path d="M9.48198 0H3.51995C1.57956 0 0.000976562 1.57858 0.000976562 3.51898V9.4811C0.000976562 11.4214 1.57956 13 3.51995 13H9.48208C11.4224 13 13.001 11.4214 13.001 9.4811V3.51898C13.001 1.57858 11.4224 0 9.48198 0V0ZM12.2388 9.4811C12.2388 11.0012 11.0021 12.2379 9.48198 12.2379H3.51995C1.99979 12.2379 0.763091 11.0012 0.763091 9.4811V3.51898C0.763091 1.99881 1.99979 0.762114 3.51995 0.762114H9.48208C11.0021 0.762114 12.2388 1.99881 12.2388 3.51898V9.4811Z" fill="#6500E4"/>
<path d="M6.50087 2.94543C4.54084 2.94543 2.94629 4.53998 2.94629 6.50002C2.94629 8.46005 4.54084 10.0546 6.50087 10.0546C8.4609 10.0546 10.0555 8.46005 10.0555 6.50002C10.0555 4.53998 8.4609 2.94543 6.50087 2.94543ZM6.50087 9.29248C4.96117 9.29248 3.7084 8.03982 3.7084 6.50002C3.7084 4.96032 4.96117 3.70755 6.50087 3.70755C8.04067 3.70755 9.29334 4.96032 9.29334 6.50002C9.29334 8.03982 8.04067 9.29248 6.50087 9.29248Z" fill="#6500E4"/>
<path d="M10.1407 1.68304C9.56145 1.68304 9.09033 2.15426 9.09033 2.73338C9.09033 3.3126 9.56145 3.78382 10.1407 3.78382C10.7199 3.78382 11.1911 3.3126 11.1911 2.73338C11.1911 2.15416 10.7199 1.68304 10.1407 1.68304ZM10.1407 3.0216C9.98178 3.0216 9.85245 2.89227 9.85245 2.73338C9.85245 2.57439 9.98178 2.44516 10.1407 2.44516C10.2997 2.44516 10.429 2.57439 10.429 2.73338C10.429 2.89227 10.2997 3.0216 10.1407 3.0216Z" fill="#6500E4"/>
</g>
<defs>
<clipPath id="clip0_148_909">
<rect width="13" height="13" fill="white" transform="translate(0.000976562)"/>
</clipPath>
</defs>
</svg>
