<svg width="13" height="11" viewBox="0 0 13 11" fill="none" xmlns="http://www.w3.org/2000/svg">
<path d="M13.001 1.46919C12.5175 1.68125 12.0024 1.82181 11.4654 1.89006C12.0179 1.56019 12.4395 1.04181 12.6378 0.417C12.1227 0.724125 11.5539 0.941063 10.9478 1.06213C10.4587 0.541313 9.76154 0.21875 9.00104 0.21875C7.52554 0.21875 6.33766 1.41638 6.33766 2.88456C6.33766 3.09581 6.35554 3.29894 6.39941 3.49231C4.18373 3.38425 2.22316 2.32231 0.906102 0.704625C0.676164 1.10356 0.541289 1.56019 0.541289 2.05175C0.541289 2.97475 1.0166 3.79294 1.7251 4.26662C1.29691 4.2585 0.876852 4.13419 0.520977 3.93837C0.520977 3.9465 0.520977 3.95706 0.520977 3.96762C0.520977 5.26275 1.44479 6.3385 2.65623 6.58631C2.43929 6.64563 2.20285 6.67406 1.95748 6.67406C1.78685 6.67406 1.6146 6.66431 1.45291 6.62856C1.79823 7.684 2.7781 8.45994 3.94323 8.48512C3.03648 9.19444 1.88516 9.62181 0.638789 9.62181C0.420227 9.62181 0.210602 9.61206 0.000976562 9.58525C1.18154 10.3466 2.58066 10.7812 4.08948 10.7812C8.99373 10.7812 11.675 6.71875 11.675 3.19737C11.675 3.07956 11.6709 2.96581 11.6652 2.85287C12.1942 2.4775 12.6386 2.00869 13.001 1.46919Z" fill="#6500E4"/>
</svg>
