<svg width="20" height="20" viewBox="0 0 20 20" fill="none" xmlns="http://www.w3.org/2000/svg">
<path opacity="0.5" d="M10 2.5C10.4603 2.5 10.8334 2.8731 10.8334 3.33333C10.8334 3.76069 10.5117 4.11292 10.0972 4.16106L10 4.16667H5.83337C5.40601 4.16667 5.05379 4.48837 5.00565 4.90282L5.00004 5V15C5.00004 15.4274 5.32174 15.7796 5.73619 15.8277L5.83337 15.8333H9.58337C10.0436 15.8333 10.4167 16.2064 10.4167 16.6667C10.4167 17.094 10.095 17.4463 9.68056 17.4944L9.58337 17.5H5.83337C4.50198 17.5 3.41366 16.4593 3.33762 15.1469L3.33337 15V5C3.33337 3.6686 4.37414 2.58028 5.68648 2.50424L5.83337 2.5H10ZM14.7559 7.05372L17.113 9.41075C17.4384 9.73617 17.4384 10.2638 17.113 10.5892L14.7559 12.9462C14.4305 13.2717 13.9029 13.2717 13.5774 12.9462C13.252 12.6208 13.252 12.0932 13.5774 11.7677L14.5119 10.8333H10C9.53979 10.8333 9.16671 10.4602 9.16671 10C9.16671 9.53975 9.53979 9.16667 10 9.16667H14.5119L13.5774 8.23223C13.252 7.9068 13.252 7.37916 13.5774 7.05372C13.9029 6.72828 14.4305 6.72828 14.7559 7.05372Z" fill="white"/>
</svg>
