<svg width="11" height="11" viewBox="0 0 11 11" fill="none" xmlns="http://www.w3.org/2000/svg">
<g clip-path="url(#clip0_148_923)">
<path d="M10.9981 11V10.9996H11.0008V6.96531C11.0008 4.99173 10.5759 3.47144 8.26869 3.47144C7.15952 3.47144 6.41519 4.0801 6.11131 4.65714H6.07923V3.65569H3.8916V10.9996H6.16952V7.36314C6.16952 6.40569 6.35102 5.47985 7.53673 5.47985C8.70502 5.47985 8.72244 6.57252 8.72244 7.42456V11H10.9981Z" fill="#6500E4"/>
<path d="M0.182617 3.65613H2.46328V11H0.182617V3.65613Z" fill="#6500E4"/>
<path d="M1.32189 0C0.592685 0 0.000976562 0.591708 0.000976562 1.32092C0.000976562 2.05013 0.592685 2.65421 1.32189 2.65421C2.0511 2.65421 2.64281 2.05013 2.64281 1.32092C2.64235 0.591708 2.05064 0 1.32189 0V0Z" fill="#6500E4"/>
</g>
<defs>
<clipPath id="clip0_148_923">
<rect width="11" height="11" fill="white" transform="translate(0.000976562)"/>
</clipPath>
</defs>
</svg>
